<svg width="110" height="111" viewBox="0 0 110 111" fill="none" xmlns="http://www.w3.org/2000/svg">
<path d="M59.2796 19.3951C59.2796 19.3951 74.0079 20.076 81.8103 36.2476C89.6126 52.4191 97.6685 47.3714 102.426 61.9593C107.184 76.5469 97.59 93.1355 91.1591 94.9329C84.7282 96.7302 11.2725 94.9329 11.2725 94.9329C11.2725 94.9329 1.56715 87.9649 0.806038 69.8665C0.0449219 51.7681 14.5077 45.7234 20.5022 43.1504C26.4964 40.5771 35.7341 18.9955 59.2796 19.3951Z" fill="#F3F5F4"/>
<path d="M38.1773 63.62C21.211 51.6328 17.9211 45.4777 9.54703 44.3331C-10.8497 41.5456 4.0948 96.9102 50.8019 108.741C72.9934 114.362 100.482 99.0307 104.414 87.1191C108.214 75.6028 97.9817 71.2828 82.8723 77.4595C67.7624 83.6362 46.8216 69.7276 38.1773 63.62Z" stroke="#BBBFBD" stroke-miterlimit="10"/>
<path d="M18.2686 51.7789C17.3055 50.6735 17.3782 48.9577 18.4308 47.9464C19.4834 46.9351 21.1174 47.0114 22.0805 48.1167C23.0435 49.2221 22.9709 50.938 21.9183 51.9492C20.8656 52.9605 19.2316 52.8842 18.2686 51.7789Z" fill="#D9D9D9"/>
<path d="M19.3843 105.171C18.3755 104.112 18.3755 102.394 19.3843 101.335C20.3931 100.275 22.0288 100.275 23.0376 101.335C24.0464 102.394 24.0464 104.112 23.0376 105.171C22.0288 106.23 20.3931 106.23 19.3843 105.171Z" stroke="#BBBFBD" stroke-miterlimit="10"/>
<path d="M54.8601 44.2608C53.4333 44.2608 52.2768 43.0463 52.2768 41.5481C52.2768 40.05 53.4333 38.8354 54.8601 38.8354C56.2868 38.8354 57.4434 40.05 57.4434 41.5481C57.4434 43.0463 56.2868 44.2608 54.8601 44.2608Z" stroke="#BBBFBD" stroke-miterlimit="10"/>
<path d="M62.1668 52.3833L64.7871 56.2135H59.8073L62.1668 52.3833Z" stroke="#BBBFBD" stroke-miterlimit="10" stroke-linecap="round" stroke-linejoin="round"/>
<path d="M74.4798 101.041L76.127 104.371H71.1474L74.4798 101.041Z" fill="#D9D9D9"/>
<path d="M98.9051 60.0931C98.2797 57.3116 99.9199 54.5243 102.569 53.8675C105.218 53.2107 107.872 54.9331 108.497 57.7146C109.123 60.4961 107.483 63.2834 104.834 63.9402C102.185 64.597 99.5306 62.8746 98.9051 60.0931Z" stroke="#BBBFBD" stroke-miterlimit="10" stroke-linecap="round" stroke-linejoin="round"/>
<path d="M101.225 80.2065C101.391 79.3398 101.474 78.568 101.474 77.8912C101.474 76.787 101.32 75.8905 101.011 75.2019C100.703 74.5013 100.311 73.9314 99.8359 73.4921C99.361 73.0409 98.8742 72.6312 98.3755 72.2632C97.7105 71.7763 97.1228 71.2598 96.6122 70.7137C96.1017 70.1556 95.8464 69.3541 95.8464 68.3093C95.8464 67.2881 96.1492 66.5164 96.7547 65.9939C97.3603 65.4715 98.138 65.2103 99.0879 65.2103C100.204 65.2103 101.13 65.5071 101.866 66.1008C102.602 66.6945 103.125 67.2881 103.434 67.8818L105.963 64.4266C105.357 63.6786 104.455 62.9662 103.255 62.2894C102.044 61.6007 100.62 61.2564 98.981 61.2564C96.3451 61.2564 94.3919 61.8323 93.1214 62.984C91.851 64.1357 91.2157 65.7565 91.2157 67.8462C91.2157 68.7605 91.3582 69.5263 91.6432 70.1437C91.9163 70.7493 92.2784 71.2776 92.7296 71.7288C93.1808 72.1682 93.6617 72.5956 94.1722 73.0112C94.7184 73.4505 95.2468 73.9254 95.7573 74.436C96.2679 74.9466 96.6894 75.5759 97.0219 76.3239C97.3543 77.0601 97.5206 77.9981 97.5206 79.1379V80.2065H101.225ZM101.261 88.9336V83.6261H97.2356V88.9336H101.261Z" fill="#57B6FF"/>
<path d="M49.4677 24.7257C47.5431 22.7047 47.5431 19.4281 49.4677 17.4071C51.3922 15.3862 54.5126 15.3862 56.4371 17.4071C58.3617 19.4281 58.3617 22.7047 56.4371 24.7257C54.5126 26.7466 51.3922 26.7466 49.4677 24.7257Z" fill="#57B6FF"/>
<path d="M50.48 42.3745C50.6462 41.5077 50.7293 40.736 50.7293 40.0592C50.7293 38.9549 50.575 38.0585 50.2663 37.3698C49.9576 36.6693 49.5657 36.0994 49.0908 35.66C48.6158 35.2088 48.129 34.7992 47.6303 34.4311C46.9654 33.9443 46.3777 33.4278 45.8671 32.8816C45.3566 32.3236 45.1013 31.5221 45.1013 30.4772C45.1013 29.4561 45.4041 28.6843 46.0096 28.1619C46.6152 27.6395 47.3929 27.3782 48.3428 27.3782C49.4589 27.3782 50.385 27.6751 51.1212 28.2688C51.8573 28.8624 52.3798 29.4561 52.6885 30.0498L55.2175 26.5946C54.612 25.8466 53.7096 25.1341 52.5104 24.4574C51.2993 23.7687 49.8744 23.4244 48.2359 23.4244C45.6 23.4244 43.6468 24.0002 42.3763 25.152C41.1058 26.3037 40.4706 27.9244 40.4706 30.0142C40.4706 30.9284 40.6131 31.6943 40.8981 32.3117C41.1711 32.9172 41.5333 33.4456 41.9845 33.8968C42.4357 34.3361 42.9166 34.7636 43.4271 35.1792C43.9733 35.6185 44.5017 36.0934 45.0122 36.604C45.5228 37.1145 45.9443 37.7438 46.2768 38.4919C46.6092 39.228 46.7755 40.166 46.7755 41.3059V42.3745H50.48ZM50.5156 51.1016V45.7941H46.4905V51.1016H50.5156Z" fill="white"/>
<path d="M88.4666 61.6558C88.153 60.2545 88.9806 58.8515 90.3151 58.5221C91.6496 58.1928 92.9856 59.0618 93.2993 60.4631C93.6129 61.8645 92.7854 63.2675 91.4509 63.5968C90.1164 63.9262 88.7803 63.0572 88.4666 61.6558Z" fill="#D9D9D9"/>
<path d="M2.95788 14.4814H25.1692C26.4372 14.4814 27.4648 15.5606 27.4648 16.892V30.9296C27.4648 32.261 26.4372 33.3402 25.1692 33.3402H20.6482L21.5447 35.7727C21.8042 36.4772 21.0274 37.1011 20.4479 36.6538L16.1545 33.3399H2.95762C1.6897 33.3399 0.662014 32.2608 0.662014 30.9293V16.8918C0.662275 15.5606 1.69023 14.4814 2.95788 14.4814Z" fill="#99CBF1"/>
<path d="M24.8438 18.416H3.59722" stroke="white" stroke-miterlimit="10" stroke-linecap="round" stroke-linejoin="round"/>
<path d="M24.8438 20.4429H3.59722" stroke="white" stroke-miterlimit="10" stroke-linecap="round" stroke-linejoin="round"/>
<path d="M24.8438 22.4697H3.59722" stroke="white" stroke-miterlimit="10" stroke-linecap="round" stroke-linejoin="round"/>
<path d="M24.8438 24.4961H3.59722" stroke="white" stroke-miterlimit="10" stroke-linecap="round" stroke-linejoin="round"/>
<path d="M24.8438 26.5229H3.59722" stroke="white" stroke-miterlimit="10" stroke-linecap="round" stroke-linejoin="round"/>
<path d="M24.8438 28.5498H3.59722" stroke="white" stroke-miterlimit="10" stroke-linecap="round" stroke-linejoin="round"/>
<path d="M72.4063 59.1044C72.4063 59.1044 72.6325 57.1107 72.9262 56.1611C73.2201 55.2118 74.4633 53.4079 74.4633 53.4079C74.4633 53.4079 74.9604 54.5235 74.2371 55.449C74.2371 55.449 74.2823 56.9206 74.2145 57.4427C74.2145 57.4427 76.5643 55.335 77.0163 55.1214C77.303 54.8812 77.6528 54.5884 78.0798 54.2309C79.6393 52.9255 80.679 53.329 80.5436 53.424C80.4502 53.4892 78.6666 55.0039 77.5625 55.9428L77.707 56.16C78.0425 55.879 78.5766 55.4312 79.3683 54.7686C80.9278 53.4632 81.9678 53.8667 81.8321 53.9617C81.7187 54.0411 79.108 56.2616 78.2566 56.9861L78.5078 57.3641C78.838 57.0874 79.3873 56.627 80.2275 55.9239C81.787 54.6185 82.8267 55.022 82.6913 55.117C82.5752 55.1984 79.8399 57.5254 79.0576 58.191L79.3239 58.5917C79.6142 58.3148 80.4207 57.5627 81.1993 56.9921C82.1712 56.28 82.8721 56.6122 82.8721 56.6122C82.8721 56.6122 82.8721 56.6122 82.4427 57.0157C82.0134 57.4191 79.7757 59.2707 79.7757 59.2707C79.7757 59.2707 76.3593 62.475 75.5019 62.7834L74.666 63.621L71.5899 60.1247L72.4063 59.1044Z" fill="#FFD3BE"/>
<path d="M47.8138 81.2347C49.648 84.0121 52.2136 85.7275 55.6245 84.9986C64.7587 83.049 75.5439 64.4305 75.5439 64.4305L75.0011 63.8137L70.9757 59.2404L56.9657 72.6091L52.5908 65.9586L48.3173 59.4642L46.2053 56.2549C46.2053 56.2549 44.9684 58.3086 44.1901 64.8367C43.7041 68.9279 44.7303 76.5754 47.8138 81.2347Z" fill="#D3AA7D"/>
<path d="M47.8138 81.2352C49.648 84.0125 52.2136 85.728 55.6245 84.9991C64.7587 83.0495 75.5439 64.431 75.5439 64.431L75.0011 63.8141L74.6665 63.6189C74.6665 63.6189 61.8141 82.1854 56.3979 79.4236C53.0491 77.7162 52.5112 70.9095 52.5905 65.9588L48.317 59.4644L47.8138 81.2352Z" fill="#C1966B"/>
<path d="M13.5036 79.4233L14.3359 94.8129H17.5635L16.2948 79.4233H13.5036Z" fill="#0064B1"/>
<path d="M33.2578 79.4233L34.0901 94.8129H37.3174L36.0487 79.4233H33.2578Z" fill="#0064B1"/>
<path d="M13.1739 82.0881H38.7438C41.2854 82.0881 43.3457 79.9246 43.3457 77.2557V62.2362C43.3457 59.5673 41.2854 57.4038 38.7438 57.4038H13.1739C10.6324 57.4038 8.57203 59.5673 8.57203 62.2362V77.2557C8.57203 79.9246 10.6324 82.0881 13.1739 82.0881Z" fill="#0064B1"/>
<path d="M15.3302 82.0881H40.9001C43.4416 82.0881 45.502 79.9246 45.502 77.2557V62.2362C45.502 59.5673 43.4416 57.4038 40.9001 57.4038H15.3302C12.7886 57.4038 10.7283 59.5673 10.7283 62.2362V77.2557C10.7285 79.9246 12.7889 82.0881 15.3302 82.0881Z" fill="#0078D4"/>
<path d="M34.6056 50.4764C34.6056 50.4764 29.5627 49.626 22.7781 56.9963L21.2131 94.8154H49.5679C49.5679 94.8154 52.664 69.3012 49.0551 60.2278C45.4459 51.1541 38.9639 50.0708 34.6056 50.4764Z" fill="#FFD294"/>
<path d="M44.4968 29.9638L43.2518 28.1738L32.6382 31.9054L32.7303 36.0917H32.0294C30.606 36.0917 29.4518 37.3034 29.4518 38.7984C29.4518 40.2933 30.6058 41.505 32.0294 41.505H32.8495L32.9744 47.1871V52.1802L40.6586 53.2898L40.8469 49.9502L40.9466 48.1956L42.0616 47.6365C45.2532 46.0372 47.2861 42.654 47.2861 38.9402C47.2861 35.7121 46.3088 32.5691 44.4968 29.9638Z" fill="#FFD3BE"/>
<path d="M40.9482 48.1939L40.8486 49.9485C40.5661 49.9131 40.2703 49.8671 39.9633 49.8085C35.2174 48.9 33.3595 44.3955 33.5523 42.0747C33.5523 42.0747 35.1522 47.6562 40.9482 48.1939Z" fill="#D37A57"/>
<path d="M31.9511 38.0223C32.1499 38.1803 32.333 38.3893 32.3984 38.6506C32.3984 38.6506 32.0022 38.7892 31.9662 39.2559C31.9302 39.7224 32.3984 39.9242 32.3984 39.9242C32.3984 39.9242 32.0382 40.5547 31.4378 40.2143C30.8373 39.8738 30.937 38.6854 31.5338 38.4364C31.5338 38.4364 30.5851 38.323 30.2372 38.6887C30.2372 38.6887 30.1576 38.3219 30.5541 37.9976C30.9628 37.6626 31.5382 37.6939 31.9511 38.0223Z" fill="#D37A57"/>
<path d="M44.4975 29.9641C44.4975 29.9641 43.0603 32.5617 41.2032 33.4023C39.346 34.2429 37.3611 33.0194 35.5039 34.1356C33.6468 35.2517 34.8315 37.3435 34.4152 38.3487C33.9989 39.3536 33.5372 39.4881 33.5372 39.4881C33.5372 39.4881 33.2876 36.6302 32.7307 36.0923C32.7307 36.0923 31.0632 36.0775 30.5442 36.5878C30.5442 36.5878 29.6125 34.613 29.4523 33.0663C29.2922 31.5196 30.9252 31.0153 30.9252 31.0153C30.9252 31.0153 31.3094 27.3169 35.632 25.9383C39.9545 24.5598 43.2523 26.7452 44.9813 25.9383C46.7104 25.1314 48.2793 26.3421 48.3753 28.1744C48.4713 30.0065 47.2866 30.6792 47.2866 30.6792C47.2866 30.6792 48.0871 31.3878 47.7668 32.4793C47.4465 33.5708 46.4418 33.8228 46.4418 33.8228C46.4418 33.8228 45.2591 31.055 44.4975 29.9641Z" fill="#3F2D1F"/>
<path d="M43.6357 43.2573L39.2347 43.0303C39.2347 43.0303 40.2535 44.6948 41.7037 44.6789C43.0392 44.6641 43.6357 43.2573 43.6357 43.2573Z" fill="white"/>
<path d="M38.5814 35.7317C38.6367 35.7317 38.6925 35.7122 38.7387 35.6722C39.6675 34.8686 40.5809 35.5512 40.5903 35.5586C40.7009 35.6437 40.8561 35.618 40.9367 35.5019C41.0173 35.3857 40.9933 35.223 40.8827 35.1381C40.4602 34.8141 39.402 34.4241 38.4236 35.2704C38.3179 35.3619 38.3028 35.526 38.3899 35.6369C38.4387 35.6993 38.5096 35.7317 38.5814 35.7317Z" fill="#3F2D1F"/>
<path d="M44.0482 35.7317C44.1037 35.7317 44.1593 35.7122 44.2055 35.6722C45.1343 34.8686 46.048 35.5512 46.0571 35.5586C46.1677 35.6437 46.3229 35.618 46.4035 35.5019C46.4841 35.3857 46.4601 35.223 46.3495 35.1381C45.9267 34.8141 44.8688 34.4241 43.8904 35.2704C43.7845 35.3619 43.7696 35.526 43.8567 35.6369C43.9055 35.6993 43.9764 35.7317 44.0482 35.7317Z" fill="#3F2D1F"/>
<path d="M31.5664 50.8683L32.9593 48.9658L38.4913 51.0129L39.387 52.6451L39.993 51.1789L40.8331 50.2156L41.7051 51.9812C41.7051 51.9812 41.6787 53.7517 39.5448 54.2219C37.4112 54.6922 32.7485 52.8664 31.5664 50.8683Z" fill="#9C897A"/>
<path d="M30.5446 36.5857C30.5446 36.5857 31.4046 36.2408 32.221 37.0291C33.0374 37.8174 32.7609 38.592 32.7609 38.592C32.7609 38.592 32.3838 37.658 31.5754 37.7599C30.7671 37.8617 30.1792 40.1548 31.2593 40.5838C32.3394 41.0124 33.7179 40.3592 33.6697 38.592C33.6214 36.825 33.0043 35.8256 31.987 35.6736C30.9698 35.5213 30.5673 36.4188 30.5446 36.5857Z" fill="#168FEC"/>
<path d="M38.1796 45.4708C38.2839 45.4708 38.3768 45.3933 38.3974 45.2818C38.4203 45.1552 38.3416 45.0331 38.2211 45.0087C34.037 44.1637 32.6197 40.0262 32.6058 39.9846C32.5657 39.8632 32.4397 39.7989 32.3233 39.8411C32.2075 39.8832 32.1462 40.0158 32.1864 40.1374C32.2013 40.1818 33.6964 44.5697 38.1376 45.4664C38.1514 45.4694 38.1655 45.4708 38.1796 45.4708Z" fill="#168FEC"/>
<path d="M39.1133 45.3153C39.1133 45.8582 38.6941 46.2984 38.1769 46.2984C37.6597 46.2984 37.2407 45.8582 37.2407 45.3153C37.2407 44.7725 37.6599 44.332 38.1769 44.332C38.6939 44.332 39.1133 44.7722 39.1133 45.3153Z" fill="#0064B1"/>
<path d="M31.6801 38.184C31.6801 38.184 31.7985 39.27 31.5713 39.8512C31.3441 40.4322 30.9884 40.1314 30.9192 39.4259C30.8504 38.7203 31.522 37.7307 31.6801 38.184Z" fill="#0064B1"/>
<path d="M40.584 37.8194C40.584 37.8194 40.5822 38.8331 39.3187 39.0013C38.0549 39.1695 37.8249 37.8194 37.8249 37.8194C37.8249 37.8194 38.5424 37.1131 39.4702 37.0922C40.3977 37.0711 40.584 37.8194 40.584 37.8194Z" fill="white"/>
<path d="M46.3555 37.8194C46.3555 37.8194 46.3539 38.8331 45.1173 39.0013C43.8809 39.1695 43.7153 37.8205 43.7153 37.8205C43.7153 37.8205 44.358 37.1131 45.2657 37.0922C46.1734 37.0711 46.3555 37.8194 46.3555 37.8194Z" fill="white"/>
<path d="M43.7156 37.8205C43.7156 37.8205 44.3778 37.0566 45.0865 36.9194C45.7952 36.7822 46.2817 37.1445 46.3555 37.8205C46.3555 37.8205 46.2149 37.2623 45.5062 37.1938C44.7972 37.1251 43.7156 37.8205 43.7156 37.8205Z" fill="#3F2D1F"/>
<path d="M37.8249 37.8213C37.8249 37.8213 38.5169 37.0229 39.2576 36.8796C39.9984 36.7364 40.5068 37.1149 40.584 37.8213C40.584 37.8213 40.4371 37.2379 39.6964 37.1661C38.9556 37.0946 37.8249 37.8213 37.8249 37.8213Z" fill="#3F2D1F"/>
<path d="M42.5035 37.8506L43.0862 41.5447C43.0862 41.5447 43.5499 41.5822 44.1924 41.3075C44.1924 41.3075 42.6699 38.2655 42.5035 37.8506Z" fill="#D37A57"/>
<path d="M59.8405 94.8155C59.8405 94.8155 59.9352 91.8656 56.7718 90.9415C53.6081 90.0171 49.7546 92.7196 49.1361 94.8155H59.8405Z" fill="#0064B1"/>
<path d="M39.3694 39.1346C38.9317 39.1346 38.5768 38.6631 38.5768 38.0815C38.5768 37.4998 38.9317 37.0283 39.3694 37.0283C39.8072 37.0283 40.1621 37.4998 40.1621 38.0815C40.1621 38.6631 39.8072 39.1346 39.3694 39.1346Z" fill="#3F2D1F"/>
<path d="M44.1364 38.1121C44.1364 38.6755 44.4825 39.1323 44.9095 39.1323C45.3365 39.1323 45.6826 38.6755 45.6826 38.1121C45.6826 37.5487 45.3365 37.0918 44.9095 37.0918C44.4825 37.0918 44.1364 37.5484 44.1364 38.1121Z" fill="#3F2D1F"/>
<path d="M35.8647 40.7156C35.8647 41.1749 36.3824 41.5471 37.0212 41.5471C37.66 41.5471 38.1777 41.1749 38.1777 40.7156C38.1777 40.2565 37.66 39.8843 37.0212 39.8843C36.3824 39.884 35.8647 40.2562 35.8647 40.7156Z" fill="#D37A57"/>
<path d="M45.31 40.314C45.31 40.773 45.8277 41.1453 46.4665 41.1453C47.1053 41.1453 47.623 40.773 47.623 40.314C47.623 39.8547 47.1053 39.4824 46.4665 39.4824C45.8277 39.4824 45.31 39.8547 45.31 40.314Z" fill="#D37A57"/>
<path d="M14.9844 85.4227C15.7852 87.9527 17.25 89.8659 18.9851 91.2195C20.1674 92.1384 21.4737 92.7969 22.7776 93.2107C28.221 94.9442 48.3809 94.8114 48.3809 94.8114L47.6224 88.4161L25.0482 83.088C25.0482 83.088 27.9682 73.361 27.8394 65.5026C27.7228 58.1884 25.6457 55.1741 23.3058 56.5981C23.1297 56.7074 22.9539 56.8375 22.7779 56.9936C22.7779 56.9936 19.2133 62.5716 15.535 74.0271C14.03 78.7124 14.0574 82.4816 14.9844 85.4227Z" fill="#E5BC89"/>
<path d="M49.9153 89.2662L54.7045 88.3498C54.7045 88.3498 55.5845 88.1915 56.4649 88.5913C57.3449 88.991 58.3442 90.9395 58.3442 90.9395C58.3442 90.9395 57.5353 90.9521 56.9884 90.4339C56.4411 89.9154 56.3699 89.4659 56.3699 89.4659L54.6124 89.6097L54.5811 90.0378C55.168 90.1726 56.8389 90.5727 57.6543 90.9398C58.6533 91.3895 59.1768 92.7631 59.1768 92.7631C59.1768 92.7631 57.8684 92.5634 57.2025 91.7141L54.482 91.39L54.4624 91.6568C55.0232 91.6968 56.0246 91.8288 56.9644 92.2638C58.3679 92.9132 58.7959 93.7875 58.7959 93.7875C58.7959 93.7875 57.3924 93.7875 56.4054 92.9882L55.7408 92.9304C56.3976 93.3725 56.9644 94.4372 56.9644 94.4372C56.9644 94.4372 56.679 94.5122 56.0366 94.2123C55.3944 93.9127 55.2277 93.5708 55.2277 93.5708L53.356 93.7179C52.3841 93.8636 50.9138 94.0069 50.0736 93.7127L48.2838 94.0019L47.722 89.2673H49.9153V89.2662Z" fill="#FFD3BE"/>
<path d="M10.0464 97.9066H100.101C100.914 97.9066 101.574 97.2136 101.574 96.359C101.574 95.5045 100.914 94.8115 100.101 94.8115H10.0461C9.2323 94.8115 8.57238 95.5045 8.57238 96.359C8.57265 97.2139 9.23229 97.9066 10.0464 97.9066Z" fill="#0064B1"/>
<path d="M44.5673 97.9066H100.69C101.178 97.9066 101.574 97.2136 101.574 96.359C101.574 95.5045 101.178 94.8115 100.69 94.8115H72.6286H44.5673C44.079 94.8115 43.6831 95.5045 43.6831 96.359C43.6831 97.2139 44.079 97.9066 44.5673 97.9066Z" fill="#0078D4"/>
<path d="M61.5371 88.8491H92.5503C93.5963 88.8491 94.5016 88.0849 94.7267 87.0123L98.7355 67.8942C98.9321 66.9566 98.2521 66.0684 97.3379 66.0684H65.9749C65.0479 66.0684 64.2456 66.7454 64.0463 67.6961L60.025 86.8737C59.8125 87.8882 60.548 88.8491 61.5371 88.8491Z" fill="#0078D4"/>
<path d="M87.4669 85.6133C87.7259 86.9833 89.2484 87.8204 90.8676 87.4827C92.4869 87.1452 93.5895 85.7609 93.3304 84.3909C93.0714 83.0209 91.5489 82.1841 89.9297 82.5215C88.3104 82.8592 87.2079 84.2433 87.4669 85.6133Z" fill="#57B6FF"/>
<path d="M60.0264 86.874L64.0477 67.6961C64.247 66.7454 65.0493 66.0684 65.9763 66.0684H67.7842C66.8572 66.0684 66.0548 66.7454 65.8556 67.6961L61.8343 86.874C61.6214 87.8885 62.357 88.8493 63.3463 88.8493H61.5385C60.5492 88.8493 59.8136 87.8885 60.0264 86.874Z" fill="#0064B1"/>
<path d="M65.3942 94.0448C65.3942 94.4691 65.7205 94.8117 66.1245 94.8117H91.8697C92.2826 94.8117 92.6579 94.6345 92.9287 94.3502C93.2018 94.0659 93.3682 93.6742 93.3682 93.2382C93.3682 92.9281 93.2795 92.6249 93.1152 92.3663L86.7432 82.3414C86.5612 82.0593 86.2591 81.8892 85.9352 81.8892H74.7944C74.3948 81.8892 74.1439 82.3438 74.346 82.7076L79.7255 92.4666C79.9253 92.8279 79.6767 93.2779 79.2815 93.2779H66.1248C65.9226 93.2779 65.7406 93.3642 65.6076 93.5041C65.4764 93.6416 65.3942 93.8328 65.3942 94.0448Z" fill="#0064B1"/>
<path d="M73.0371 77.3265H88.832C89.0158 77.3265 89.165 77.1698 89.165 76.9767C89.165 76.7836 89.0158 76.627 88.832 76.627H73.0371C72.8532 76.627 72.704 76.7836 72.704 76.9767C72.704 77.1701 72.8532 77.3265 73.0371 77.3265Z" fill="#0064B1"/>
<path d="M72.2751 79.4237H88.0702C88.2541 79.4237 88.4033 79.267 88.4033 79.0739C88.4033 78.8808 88.2541 78.7241 88.0702 78.7241H72.2754C72.0915 78.7241 71.9423 78.8808 71.9423 79.0739C71.9423 79.2673 72.0913 79.4237 72.2751 79.4237Z" fill="#0064B1"/>
<path d="M98.4085 67.2007H64.9612C64.6892 67.2007 64.4278 67.2535 64.1865 67.3477C64.4875 66.5844 65.2014 66.0684 66.0105 66.0684H97.3735C98.0697 66.0684 98.6287 66.5836 98.7695 67.2431C98.6542 67.2157 98.5335 67.2007 98.4085 67.2007Z" fill="#57B6FF"/>
<path d="M64.0479 85.6133C64.307 86.9833 65.8294 87.8204 67.4487 87.4827C69.068 87.1452 70.1705 85.7609 69.9115 84.3909C69.6525 83.0209 68.13 82.1841 66.5107 82.5215C64.8917 82.8592 63.7892 84.2433 64.0479 85.6133Z" fill="#57B6FF"/>
<path d="M65.3962 94.1004C65.4239 94.5088 65.7739 94.8117 66.1639 94.8117H80.8155C81.407 94.8117 81.8867 94.308 81.8867 93.6871C81.8867 93.4745 81.8293 93.2664 81.7213 93.0867L74.99 81.8892H74.7946C74.395 81.8892 74.1441 82.3438 74.3463 82.7076L79.7257 92.4666C79.9255 92.8279 79.6769 93.2779 79.2818 93.2779H66.125C65.9229 93.2779 65.7408 93.3642 65.6078 93.5041C65.4651 93.6531 65.3806 93.8662 65.3962 94.1004Z" fill="#004B84"/>
<path d="M22.7776 93.2135C28.221 94.947 48.3809 94.8141 48.3809 94.8141L22.3337 87.5361C19.61 86.7749 17.8755 83.9762 18.3184 81.0534C19.4632 73.4974 21.679 59.9394 23.3058 56.6006C23.1297 56.7099 22.9539 56.84 22.7779 56.9961C22.7779 56.9961 19.2133 62.574 15.535 74.0296C11.8562 85.4879 17.3316 91.4824 22.7776 93.2135Z" fill="#D3AA7D"/>
<path d="M24.3135 83.358C24.3135 83.358 20.589 83.3029 17.5644 86.203" stroke="#9C897A" stroke-miterlimit="10" stroke-linecap="round" stroke-linejoin="round"/>
<path d="M32.1084 51.5503C32.1084 51.5503 27.2076 53.3002 24.7941 56.3005" stroke="#E5BC89" stroke-miterlimit="10" stroke-linecap="round" stroke-linejoin="round"/>
<path d="M56.502 73.4839C56.502 73.4839 53.7955 77.1651 53.4491 81.4042" stroke="#9C897A" stroke-miterlimit="10" stroke-linecap="round" stroke-linejoin="round"/>
<path d="M42.5044 52.0088C42.5044 52.0088 43.5334 55.0403 39.2359 55.4123C34.9381 55.7842 30.2277 51.3569 30.2277 51.3569" stroke="#E5BC89" stroke-miterlimit="10" stroke-linecap="round" stroke-linejoin="round"/>
<path d="M48.3814 89.2671L49.3877 93.8237L48.2844 94.002L47.7228 89.2671H48.3814Z" fill="#D37A57"/>
<path d="M39.5449 54.2246C39.5449 54.2246 40.819 58.0373 41.7051 67.8976" stroke="#E5BC89" stroke-miterlimit="10" stroke-linecap="round" stroke-linejoin="round"/>
<path d="M31.3119 31.0572C31.3119 31.0572 33.3193 30.5585 35.1357 31.292" stroke="#543E2F" stroke-miterlimit="10" stroke-linecap="round" stroke-linejoin="round"/>
<path d="M44.498 29.9624C44.498 29.9624 44.7005 33.0492 40.9815 33.4902" stroke="#543E2F" stroke-miterlimit="10" stroke-linecap="round" stroke-linejoin="round"/>
<path d="M30.9824 29.022C30.9824 29.022 30.5497 30.2488 30.9243 31.0146" stroke="#543E2F" stroke-miterlimit="10" stroke-linecap="round" stroke-linejoin="round"/>
<path d="M47.8251 27.772C47.8251 27.772 47.9928 29.6676 46.1485 30.4132" stroke="#543E2F" stroke-miterlimit="10" stroke-linecap="round" stroke-linejoin="round"/>
<path d="M47.1525 31.2939C47.1525 31.2939 47.495 32.7127 46.22 33.3238" stroke="#543E2F" stroke-miterlimit="10" stroke-linecap="round" stroke-linejoin="round"/>
<path d="M41.2021 26.4505C41.2021 26.4505 38.8236 25.3551 35.4453 26.9492C32.3979 28.3872 32.1074 30.1774 32.1074 30.1774" stroke="#543E2F" stroke-miterlimit="10" stroke-linecap="round" stroke-linejoin="round"/>
<path d="M30.9824 31.8218C30.9824 31.8218 30.3118 32.1543 30.3118 33.1521C30.3118 34.1499 30.7717 35.1672 30.7717 35.1672" stroke="#543E2F" stroke-miterlimit="10" stroke-linecap="round" stroke-linejoin="round"/>
<path d="M42.1514 31.4688C42.1514 31.4688 41.6769 32.7892 38.91 32.936C36.143 33.0828 35.2486 33.0828 34.4941 34.0218C33.7395 34.961 33.9909 35.9881 33.9909 35.9881" stroke="#543E2F" stroke-miterlimit="10" stroke-linecap="round" stroke-linejoin="round"/>
<path d="M43.1873 0.833008H68.3693C69.8277 0.833008 71.0098 2.07459 71.0098 3.60596V8.13351C71.0098 9.66488 69.8277 10.9062 68.3693 10.9062H65.034L65.81 13.7202C65.9545 14.2442 65.4047 14.6772 64.9662 14.385L59.7443 10.9062H43.1873C41.729 10.9062 40.5469 9.66488 40.5469 8.13351V3.60596C40.5466 2.07459 41.729 0.833008 43.1873 0.833008Z" fill="#D9D9D9"/>
<path d="M67.585 3.54443H43.8242" stroke="white" stroke-miterlimit="10" stroke-linecap="round" stroke-linejoin="round"/>
<path d="M67.585 5.65967H43.8242" stroke="white" stroke-miterlimit="10" stroke-linecap="round" stroke-linejoin="round"/>
<path d="M67.585 7.77588H43.8242" stroke="white" stroke-miterlimit="10" stroke-linecap="round" stroke-linejoin="round"/>
<path d="M84.2172 50.8028C72.3761 50.8028 62.7771 40.7229 62.7771 28.2888C62.7771 15.8547 72.3761 5.7749 84.2172 5.7749C96.0582 5.7749 105.657 15.8547 105.657 28.2888C105.657 40.7229 96.0582 50.8028 84.2172 50.8028Z" stroke="#BBBFBD" stroke-miterlimit="10"/>
<path d="M64.1383 28.2863C64.1383 36.1548 68.243 43.0163 74.3259 46.6394C75.0075 47.0453 75.7141 47.4126 76.4403 47.7325C78.8324 48.7892 81.4598 49.3724 84.216 49.3724C84.3994 49.3724 84.5804 49.3696 84.7614 49.3644C84.8731 49.3617 84.9844 49.3565 85.0961 49.3488C85.1754 49.3488 85.2523 49.3463 85.3316 49.3384C85.4505 49.3332 85.5695 49.3253 85.6861 49.3151C85.7356 49.3124 85.7852 49.3099 85.8347 49.302C85.9761 49.294 86.1149 49.2787 86.2537 49.2655C86.4148 49.2475 86.5734 49.2291 86.732 49.2083L81.767 41.6676L94.9567 26.6514L103.563 33.9527C103.652 33.6144 103.734 33.2759 103.808 32.9297C103.835 32.7996 103.863 32.6667 103.888 32.5366C103.922 32.3649 103.955 32.1904 103.982 32.0187C104.002 31.9042 104.021 31.7897 104.036 31.6752C104.064 31.5112 104.086 31.3446 104.108 31.1781C104.121 31.0844 104.133 30.9932 104.143 30.8995C104.16 30.7563 104.178 30.6106 104.19 30.4649L104.198 30.3789C104.213 30.2227 104.227 30.0666 104.237 29.9078C104.25 29.7333 104.262 29.5591 104.27 29.3819V29.3715C104.28 29.1918 104.287 29.0124 104.29 28.83C104.295 28.6503 104.297 28.4681 104.297 28.286C104.297 24.785 103.484 21.4845 102.046 18.5796C99.0591 12.5412 93.3703 8.2125 86.6603 7.35629C85.8595 7.25468 85.0442 7.20264 84.2163 7.20264C80.8452 7.20264 77.6649 8.07719 74.8763 9.62061L83.6213 17.0364L77.7838 35.6237L66.4634 18.4341C64.9787 21.3731 64.1383 24.728 64.1383 28.2863Z" fill="#57B6FF"/>
<path d="M102.1 18.5601L95.0106 26.6316L103.617 33.9329C103.706 33.5946 103.788 33.2561 103.862 32.9099C103.889 32.7798 103.917 32.6469 103.942 32.5168C103.976 32.3451 104.009 32.1706 104.036 31.9989C104.056 31.8844 104.075 31.7699 104.09 31.6554C104.117 31.4914 104.14 31.3248 104.162 31.1583C104.175 31.0646 104.187 30.9734 104.197 30.8798C104.214 30.7365 104.232 30.5908 104.244 30.4451L104.251 30.3591C104.266 30.203 104.281 30.0468 104.291 29.888C104.303 29.7135 104.316 29.5393 104.323 29.3621V29.3517C104.333 29.172 104.341 28.9926 104.343 28.8102C104.348 28.6305 104.351 28.4484 104.351 28.2662C104.351 24.7652 103.538 21.4648 102.1 18.5601Z" fill="#0078D4"/>
<path d="M76.4922 47.7153C78.8843 48.772 81.5117 49.3552 84.2682 49.3552C84.4515 49.3552 84.6326 49.3524 84.8136 49.3472C84.9252 49.3445 85.0366 49.3393 85.1482 49.3316C85.2275 49.3316 85.3045 49.3289 85.3838 49.3212C85.5027 49.316 85.6216 49.3081 85.7382 49.2979C85.7878 49.2952 85.8374 49.2927 85.8869 49.2848C86.0283 49.2771 86.167 49.2615 86.3058 49.2483C86.467 49.2303 86.6256 49.2119 86.7842 49.1911L81.8192 41.6504L76.4922 47.7153Z" fill="#0078D4"/>
<path d="M74.9299 9.60206L83.6749 17.0179L86.7139 7.33774C85.9131 7.23612 85.0977 7.18408 84.2698 7.18408C80.8988 7.18381 77.7187 8.05837 74.9299 9.60206Z" fill="#0078D4"/>
<path d="M64.1904 28.2674C64.1904 36.136 68.2951 42.9974 74.3781 46.6205L77.8359 35.6051L66.5155 18.4155C65.0305 21.3542 64.1904 24.7092 64.1904 28.2674Z" fill="#0078D4"/>
<path d="M81.8187 41.6508L86.7836 49.1915C86.9102 49.1759 87.0364 49.1579 87.1629 49.1368C87.267 49.1212 87.371 49.1055 87.4751 49.0875C87.5917 49.0694 87.7057 49.0483 87.8223 49.025C87.9759 48.9965 88.1296 48.9678 88.2834 48.9338C88.4149 48.9053 88.5461 48.8766 88.6752 48.8453C88.7571 48.827 88.8388 48.8062 88.9207 48.7854C89.0297 48.7593 89.1364 48.7306 89.2454 48.7021C89.5999 48.6084 89.9494 48.5016 90.2963 48.3871C90.4228 48.3455 90.5491 48.3038 90.673 48.2595C90.8415 48.1995 91.0076 48.1398 91.1711 48.0746C91.3248 48.0173 91.4784 47.9549 91.6297 47.8924C91.7833 47.83 91.9346 47.7648 92.0833 47.6972C92.232 47.632 92.3806 47.5643 92.527 47.4942C92.527 47.4942 92.5293 47.4942 92.5319 47.4915C92.6806 47.4211 92.8269 47.3482 92.9733 47.2754C93.4195 47.0516 93.8533 46.8094 94.2795 46.5517C94.4133 46.4684 94.5471 46.3852 94.6786 46.3019C94.9561 46.1274 95.229 45.9428 95.4942 45.7527C95.628 45.6591 95.7595 45.5627 95.8907 45.4638C96.0221 45.3674 96.1533 45.266 96.2825 45.1644C96.2874 45.1617 96.2924 45.1565 96.2997 45.1513C96.4212 45.0549 96.5451 44.956 96.6641 44.8571C96.7707 44.7686 96.8748 44.6826 96.9789 44.5917C97.1325 44.4616 97.2838 44.3263 97.4325 44.1907C97.5465 44.0866 97.6581 43.9825 97.7695 43.8757C97.8811 43.7689 97.9925 43.6596 98.1041 43.5503C98.1166 43.5372 98.1289 43.5268 98.1388 43.5164C98.2478 43.4043 98.3569 43.2926 98.4659 43.1781C98.5601 43.0792 98.6542 42.9776 98.7484 42.8763C98.8772 42.7358 99.0061 42.5925 99.1303 42.4468C99.2393 42.3219 99.346 42.1943 99.45 42.0666C99.5343 41.9677 99.6136 41.8661 99.6929 41.7648C99.7424 41.7075 99.787 41.6503 99.8316 41.5903C99.9109 41.4887 99.9879 41.3873 100.065 41.2857C100.151 41.1712 100.236 41.0568 100.317 40.9395C100.429 40.7859 100.538 40.6325 100.642 40.4736C100.736 40.3356 100.828 40.1978 100.917 40.057C100.982 39.9581 101.044 39.8593 101.106 39.7577C101.145 39.6977 101.182 39.6352 101.22 39.5728C101.388 39.297 101.552 39.0132 101.708 38.7267C101.78 38.5914 101.852 38.4561 101.924 38.318C102.087 38.0031 102.243 37.6829 102.39 37.3575C102.454 37.2222 102.514 37.0841 102.573 36.9464C102.635 36.8006 102.697 36.6549 102.756 36.5092C102.761 36.4988 102.764 36.4857 102.769 36.4752C102.831 36.3216 102.893 36.1655 102.952 36.0093C102.952 36.0041 102.955 35.9989 102.957 35.9913C103.016 35.8351 103.074 35.6763 103.128 35.5177C103.183 35.3668 103.235 35.2131 103.284 35.057C103.329 34.919 103.374 34.7784 103.416 34.6379C103.445 34.5339 103.478 34.427 103.508 34.323C103.51 34.315 103.513 34.3098 103.513 34.3021C103.547 34.1797 103.582 34.0575 103.614 33.9351L95.008 26.6338L81.8187 41.6508Z" fill="#0064B1"/>
<path d="M66.5178 18.4151L77.8383 35.6047L83.6758 17.0174L74.9308 9.60156C71.3487 11.5797 68.4089 14.6588 66.5178 18.4151Z" fill="#0064B1"/>
<path d="M77.836 35.6047L81.8192 41.6485L95.0088 26.6323L83.6734 17.0171L77.836 35.6047Z" fill="#0078D4"/>
<path d="M80.5512 25.3364L80.4881 24.2263L79.7826 23.8727C77.7632 22.8606 76.4767 20.7201 76.4767 18.37C76.4767 16.3276 77.0949 14.3388 78.2415 12.6902L79.0293 11.5576L85.745 13.9186L85.6865 16.5675H86.13C87.0306 16.5675 87.761 17.3341 87.761 18.2802C87.761 19.226 87.0309 19.9929 86.13 19.9929H85.6112L85.5321 23.5884V24.8505C85.5321 24.8505 86.745 26.0775 89.0469 27.1186C89.0469 27.1186 86.4805 30.5024 82.2396 30.7256C77.9987 30.9488 77.8354 28.2709 77.8354 28.2709C77.8354 28.2709 79.594 27.1655 80.6024 26.2498L80.5512 25.3364Z" fill="#FFD3BE"/>
<path d="M80.4881 24.2251L80.5512 25.3352C80.7299 25.3131 80.9172 25.2838 81.1115 25.2465C84.1145 24.6716 85.29 21.8214 85.1682 20.353C85.1682 20.353 84.1554 23.885 80.4881 24.2251Z" fill="#D37A57"/>
<path d="M86.1809 17.789C86.0551 17.889 85.9393 18.0213 85.8978 18.1864C85.8978 18.1864 86.1485 18.2741 86.1715 18.5693C86.1942 18.8646 85.8978 18.9922 85.8978 18.9922C85.8978 18.9922 86.1258 19.391 86.5056 19.1758C86.8854 18.9605 86.8225 18.2083 86.4448 18.0509C86.4448 18.0509 87.045 17.9791 87.2654 18.2105C87.2654 18.2105 87.3157 17.9785 87.0648 17.7731C86.8061 17.5617 86.4422 17.5811 86.1809 17.789Z" fill="#D37A57"/>
<path d="M80.6323 15.7047C80.6672 15.7058 80.7022 15.7192 80.7309 15.7452C81.3042 16.2716 81.8939 15.8575 81.8999 15.8531C81.9714 15.8016 82.0689 15.8208 82.118 15.8958C82.167 15.9709 82.1487 16.0733 82.0775 16.1248C81.8044 16.3215 81.1284 16.5477 80.5245 15.9933C80.4593 15.9336 80.4525 15.8296 80.5097 15.7611C80.5415 15.7222 80.5871 15.7033 80.6323 15.7047Z" fill="#3F2D1F"/>
<path d="M77.1021 16.1101C77.1329 16.0923 77.1694 16.0852 77.2065 16.0926C77.9551 16.2397 78.2626 15.5683 78.2655 15.5615C78.302 15.4788 78.3954 15.4434 78.4739 15.4818C78.5524 15.5201 78.5863 15.6182 78.5498 15.7006C78.4097 16.0159 77.9371 16.5713 77.1488 16.4166C77.0635 16.3999 77.0075 16.3139 77.0236 16.2243C77.0328 16.1736 77.0625 16.1331 77.1021 16.1101Z" fill="#3F2D1F"/>
<path d="M80.7188 17.6596C80.7188 17.6596 80.7199 18.3011 81.5196 18.4074C82.3193 18.5137 82.4648 17.6596 82.4648 17.6596C82.4648 17.6596 82.0107 17.2126 81.4236 17.1995C80.8367 17.1863 80.7188 17.6596 80.7188 17.6596Z" fill="white"/>
<path d="M77.065 17.6599C77.065 17.6599 77.066 18.3014 77.8483 18.4076C78.6305 18.5142 78.7354 17.6604 78.7354 17.6604C78.7354 17.6604 78.3287 17.2126 77.7544 17.1995C77.1803 17.1866 77.065 17.6599 77.065 17.6599Z" fill="white"/>
<path d="M78.7383 17.6612C78.7383 17.6612 78.3194 17.1778 77.8707 17.091C77.4224 17.0041 77.1146 17.2334 77.0676 17.6612C77.0676 17.6612 77.1566 17.3079 77.6052 17.2646C78.0536 17.2213 78.7383 17.6612 78.7383 17.6612Z" fill="#3F2D1F"/>
<path d="M82.4648 17.6616C82.4648 17.6616 82.0269 17.1565 81.5582 17.0659C81.0895 16.9752 80.7679 17.2149 80.7191 17.6616C80.7191 17.6616 80.8119 17.2924 81.2807 17.2472C81.7494 17.202 82.4648 17.6616 82.4648 17.6616Z" fill="#3F2D1F"/>
<path d="M79.5039 17.6792L79.1351 20.0167C79.1351 20.0167 78.8416 20.0405 78.4353 19.8666C78.4353 19.8666 79.3985 17.9419 79.5039 17.6792Z" fill="#D37A57"/>
<path d="M81.9893 17.8246C81.9893 18.1927 81.7647 18.491 81.4877 18.491C81.2107 18.491 80.9861 18.1927 80.9861 17.8246C80.9861 17.4568 81.2107 17.1582 81.4877 17.1582C81.7647 17.1582 81.9893 17.4568 81.9893 17.8246Z" fill="#3F2D1F"/>
<path d="M78.4727 17.8448C78.4727 18.2014 78.2536 18.4904 77.9833 18.4904C77.7131 18.4904 77.4943 18.2014 77.4943 17.8448C77.4943 17.4882 77.7134 17.1992 77.9833 17.1992C78.2538 17.1992 78.4727 17.4882 78.4727 17.8448Z" fill="#3F2D1F"/>
<path d="M82.9715 20.0181C82.5674 20.0181 82.2398 19.7826 82.2398 19.492C82.2398 19.2014 82.5674 18.9658 82.9715 18.9658C83.3756 18.9658 83.7031 19.2014 83.7031 19.492C83.7031 19.7826 83.3756 20.0181 82.9715 20.0181Z" fill="#D37A57"/>
<path d="M76.9976 19.7652C76.5934 19.7652 76.2657 19.5296 76.2657 19.2391C76.2657 18.9485 76.5934 18.7129 76.9976 18.7129C77.4018 18.7129 77.7295 18.9485 77.7295 19.2391C77.7295 19.5296 77.4018 19.7652 76.9976 19.7652Z" fill="#D37A57"/>
<path d="M79.239 20.9176C79.239 20.9176 80.4209 20.9595 80.899 21.4196C81.3771 21.8798 79.611 22.0192 79.239 21.8379C78.8673 21.6568 78.702 20.8595 79.239 20.9176Z" fill="white"/>
<path d="M82.1201 17.4079C82.1201 17.4079 82.3556 17.5252 82.6123 17.3521C82.6123 17.3521 82.5883 17.6057 82.4652 17.6594L82.1201 17.4079Z" fill="#3F2D1F"/>
<path d="M77.3369 17.2363C77.3369 17.2363 77.0589 17.4779 76.8476 17.4037C76.7699 17.3763 77.0654 17.6606 77.0654 17.6606C77.1358 17.3911 77.3369 17.2363 77.3369 17.2363Z" fill="#3F2D1F"/>
<path d="M75.7232 29.624C75.7232 29.624 71.9625 36.8418 70.5284 42.8944L74.406 45.2656C74.406 45.2656 75.9473 42.0305 76.4781 37.0664C77.0086 32.102 75.7232 29.624 75.7232 29.624Z" fill="#847062"/>
<path d="M77.8379 13.3233C77.8379 13.3233 81.5955 17.0576 85.0302 16.6487C85.0302 16.6487 85.4021 19.2702 84.7824 20.2743C84.7824 20.2743 85.0479 20.5506 85.4199 19.5013C85.7918 18.452 85.4981 17.0026 85.6893 16.5654C85.6893 16.5654 86.8354 16.2803 87.5885 17.5057C88.3415 18.7311 86.6933 20.2274 85.6139 19.9905L85.5644 22.2439C85.5644 22.2439 86.801 22.7284 87.8456 21.7988C88.8903 20.8692 88.3767 19.9209 88.3767 19.9209C88.3767 19.9209 89.9524 18.2877 90.0233 16.0195C90.0943 13.7514 88.2971 12.326 88.2971 12.326C88.2971 12.326 87.704 8.9702 83.7558 8.93295C79.8075 8.8957 78.6567 10.1414 78.6567 10.1414C78.6567 10.1414 76.1081 10.5969 75.39 13.4416C74.6719 16.2863 76.4792 17.8075 76.4792 17.8075C76.4792 17.8075 77.0017 14.1628 77.8379 13.3233Z" fill="#3F2D1F"/>
<path d="M87.6302 11.9355C87.6302 11.9355 87.8201 9.49833 90.0226 9.60132C92.2248 9.7043 92.6497 12.3537 91.6938 13.5808C90.7376 14.8079 89.4895 14.529 88.5599 13.5808C87.6302 12.6328 87.6302 11.9355 87.6302 11.9355Z" fill="#3F2D1F"/>
<path d="M84.7575 21.5253L86.1457 24.5604C86.1952 24.6697 86.3267 24.7009 86.4183 24.6281L86.4754 24.5812L91.0238 20.8902C91.0932 20.8329 91.1156 20.7313 91.0734 20.648L89.5044 17.6313L89.4671 17.5609C89.415 17.4569 89.2838 17.4308 89.1969 17.5062L84.8045 21.2986C84.7426 21.3536 84.7228 21.4473 84.7575 21.5253Z" fill="white"/>
<path d="M75.1838 47.1025C77.898 48.5418 80.9668 49.3515 84.2165 49.3515C86.8911 49.3515 89.4441 48.8023 91.7768 47.8029L93.2617 29.9441C93.2617 29.9441 92.9568 28.7129 91.1375 28.0101C89.0701 27.2084 89.0479 27.1172 89.0479 27.1172C81.1679 31.2818 77.8365 28.2676 77.8365 28.2676L76.1014 29.1942C75.9303 29.2854 75.7965 29.4363 75.7222 29.6212C75.3132 30.6494 73.9574 34.2153 73.8209 36.6724C73.714 38.6303 74.5964 43.8905 75.1838 47.1025Z" fill="#9C897A"/>
<path d="M92.3909 28.7314C92.3909 28.7314 94.3124 29.5326 95.0081 34.8128C95.704 40.093 94.9611 42.8906 94.9611 42.8906L91.136 38.1223C91.136 38.1223 89.8266 30.8125 92.3909 28.7314Z" fill="#9C897A"/>
<path d="M86.6825 21.0113C87.0492 21.2337 88.0039 21.9348 88.1745 22.2301C88.2564 22.3723 88.2906 22.5341 88.3046 22.6651L88.5446 22.5393C88.4236 21.9959 88.2 21.4528 88.2 21.4528C88.2 21.4528 87.8195 21.2389 87.6069 20.9228C87.3943 20.6067 87.4741 20.3542 87.4741 20.3542C87.6192 20.4421 87.8526 20.6023 88.096 20.7836C88.0926 20.7787 88.0884 20.7743 88.085 20.7691C87.8727 20.453 87.9523 20.2005 87.9523 20.2005C88.3331 20.4314 89.3242 21.1594 89.5013 21.4662C89.5968 21.6316 89.6297 21.8223 89.6406 21.9644L89.7077 21.9294C89.5939 21.3544 89.342 20.7412 89.342 20.7412C89.342 20.7412 88.9614 20.5273 88.7488 20.2112C88.5365 19.8951 88.6161 19.6426 88.6161 19.6426C88.9969 19.8735 89.9881 20.6015 90.1652 20.9083C90.3423 21.215 90.3068 21.6147 90.3068 21.6147L90.1652 24.2361L90.0256 27.1178C90.0256 27.1178 95.0696 39.24 95.0112 42.1962C94.9528 45.1524 93.2636 46.3236 93.2636 46.3236C93.2636 46.3236 91.4576 46.1004 90.3068 44.2335C89.156 42.3666 88.0936 28.1403 88.0936 28.1403C88.0936 28.1403 87.4916 27.1734 87.3855 26.2487C87.2793 25.3241 87.6836 22.9902 87.6836 22.9902C87.5636 22.5117 87.3815 22.0685 87.3815 22.0685C87.3815 22.0685 87.0148 21.8625 86.8103 21.5582C86.6058 21.2542 86.6825 21.0113 86.6825 21.0113Z" fill="#FFD3BE"/>
<path d="M84.758 21.5251L86.1461 24.5601C86.1957 24.6694 86.3271 24.7007 86.4187 24.6278L86.4758 24.581L85.0728 21.4133L89.5049 17.6313L89.4676 17.5609C89.4154 17.4569 89.2842 17.4308 89.1974 17.5062L84.8049 21.2986C84.7431 21.3533 84.7233 21.447 84.758 21.5251Z" fill="#D9D9D9"/>
<path d="M89.5028 18.2407L89.6953 18.6381L88.7391 19.4467L88.52 19.0632L89.5028 18.2407Z" fill="#D9D9D9"/>
<path d="M61.8511 30.2069L62.9226 30.4162L62.9516 30.3165C62.6417 30.2053 61.9137 29.9045 61.619 29.4406C61.2402 28.844 61.1075 28.2672 61.1075 28.2672C61.1075 28.2672 61.764 28.6279 62.0167 29.3165L62.5243 29.4156C62.3209 29.2833 62.1323 29.1231 62.0139 28.9366C61.6351 28.3397 61.5024 27.7632 61.5024 27.7632C61.5024 27.7632 62.1589 28.1239 62.4116 28.8125L63.0517 28.9374C62.7862 28.7186 62.5082 28.4331 62.3921 28.1245C62.1412 27.4575 62.1271 26.8643 62.1271 26.8643C62.1271 26.8643 62.6965 27.3619 62.8058 28.0908L63.5095 28.3995L66.5894 29.4096L66.5662 28.9426C66.5662 28.9426 66.4501 28.8695 66.1249 28.6011C65.7996 28.3326 65.3938 27.2187 65.3938 27.2187C65.3938 27.2187 67.0078 28.0155 67.4012 28.8936C67.7945 29.7717 68.1693 31.9429 68.1693 31.9429C68.1693 31.9429 71.8708 41.2963 72.5281 43.8731C72.5281 43.8731 73.7994 44.3894 74.4043 45.264C74.4043 45.264 73.1119 47.7553 72.085 48.0155C72.085 48.0155 69.1104 47.4206 67.6941 43.7764C66.2777 40.1322 65.707 32.7717 65.707 32.7717L62.7338 31.0642C62.7338 31.0642 61.8355 30.7958 61.5259 30.308C61.216 29.8202 61.1077 29.3485 61.1077 29.3485C61.1077 29.3485 61.6445 29.6441 61.8511 30.2069Z" fill="#FFD3BE"/>
<path d="M75.095 40.82C75.095 40.82 76.8366 40.4678 79.8174 40.4678C82.7982 40.4678 85.7793 41.0547 85.7793 41.0547" stroke="#847062" stroke-miterlimit="10" stroke-linecap="round" stroke-linejoin="round"/>
<path d="M78.2363 11.1226C78.2363 11.1226 77.7567 12.0511 77.7979 12.6876" stroke="#543E2F" stroke-miterlimit="10" stroke-linecap="round" stroke-linejoin="round"/>
<path d="M78.9717 10.4199C78.9717 10.4199 80.918 11.0852 81.9893 12.6894" stroke="#543E2F" stroke-miterlimit="10" stroke-linecap="round" stroke-linejoin="round"/>
<path d="M87.9973 11.4575C87.9973 11.4575 88.3139 12.2009 88.3327 12.4748C88.3327 12.4748 89.3729 13.492 89.5049 14.079" stroke="#543E2F" stroke-miterlimit="10" stroke-linecap="round" stroke-linejoin="round"/>
<path d="M91.9102 14.2124C91.8356 14.271 90.8068 15.0894 89.7515 14.3997" stroke="#543E2F" stroke-miterlimit="10" stroke-linecap="round" stroke-linejoin="round"/>
<path d="M86.7139 11.1215C86.7139 11.1215 84.2993 8.78353 80.3028 10.0161" stroke="#543E2F" stroke-miterlimit="10" stroke-linecap="round" stroke-linejoin="round"/>
<path d="M86.2256 15.9508C86.2256 15.9508 85.1885 16.3898 82.9714 15.9508C80.7543 15.5117 78.7357 13.1274 78.7357 13.1274" stroke="#543E2F" stroke-miterlimit="10" stroke-linecap="round" stroke-linejoin="round"/>
<path d="M87.1211 28.7314C87.1211 28.7314 84.0892 30.0593 80.9839 29.8637C77.8787 29.6682 77.4919 29.0812 77.4919 29.0812" stroke="#847062" stroke-miterlimit="10" stroke-linecap="round" stroke-linejoin="round"/>
</svg>
